<?xml version="1.0" encoding="UTF-8"?>
<!DOCTYPE svg PUBLIC "-//W3C//DTD SVG 1.1//EN" "http://www.w3.org/Graphics/SVG/1.1/DTD/svg11.dtd">
<svg version="1.2" width="215.9mm" height="279.4mm" viewBox="0 0 21590 27940" preserveAspectRatio="xMidYMid" fill-rule="evenodd" stroke-width="28.222" stroke-linejoin="round" xmlns="http://www.w3.org/2000/svg" xmlns:ooo="http://xml.openoffice.org/svg/export" xmlns:xlink="http://www.w3.org/1999/xlink" xmlns:presentation="http://sun.com/xmlns/staroffice/presentation" xmlns:smil="http://www.w3.org/2001/SMIL20/" xmlns:anim="urn:oasis:names:tc:opendocument:xmlns:animation:1.0" xml:space="preserve">
 <defs class="ClipPathGroup">
  <clipPath id="presentation_clip_path" clipPathUnits="userSpaceOnUse">
   <rect x="0" y="0" width="21590" height="27940"/>
  </clipPath>
  <clipPath id="presentation_clip_path_shrink" clipPathUnits="userSpaceOnUse">
   <rect x="21" y="27" width="21547" height="27885"/>
  </clipPath>
 </defs>
 <defs class="TextShapeIndex">
  <g ooo:slide="id1" ooo:id-list="id3 id4 id5 id6 id7 id8 id9 id10 id11 id12"/>
 </defs>
 <defs class="EmbeddedBulletChars">
  <g id="bullet-char-template(57356)" transform="scale(0.00048828125,-0.00048828125)">
   <path d="M 580,1141 L 1163,571 580,0 -4,571 580,1141 Z"/>
  </g>
  <g id="bullet-char-template(57354)" transform="scale(0.00048828125,-0.00048828125)">
   <path d="M 8,1128 L 1137,1128 1137,0 8,0 8,1128 Z"/>
  </g>
  <g id="bullet-char-template(10146)" transform="scale(0.00048828125,-0.00048828125)">
   <path d="M 174,0 L 602,739 174,1481 1456,739 174,0 Z M 1358,739 L 309,1346 659,739 1358,739 Z"/>
  </g>
  <g id="bullet-char-template(10132)" transform="scale(0.00048828125,-0.00048828125)">
   <path d="M 2015,739 L 1276,0 717,0 1260,543 174,543 174,936 1260,936 717,1481 1274,1481 2015,739 Z"/>
  </g>
  <g id="bullet-char-template(10007)" transform="scale(0.00048828125,-0.00048828125)">
   <path d="M 0,-2 C -7,14 -16,27 -25,37 L 356,567 C 262,823 215,952 215,954 215,979 228,992 255,992 264,992 276,990 289,987 310,991 331,999 354,1012 L 381,999 492,748 772,1049 836,1024 860,1049 C 881,1039 901,1025 922,1006 886,937 835,863 770,784 769,783 710,716 594,584 L 774,223 C 774,196 753,168 711,139 L 727,119 C 717,90 699,76 672,76 641,76 570,178 457,381 L 164,-76 C 142,-110 111,-127 72,-127 30,-127 9,-110 8,-76 1,-67 -2,-52 -2,-32 -2,-23 -1,-13 0,-2 Z"/>
  </g>
  <g id="bullet-char-template(10004)" transform="scale(0.00048828125,-0.00048828125)">
   <path d="M 285,-33 C 182,-33 111,30 74,156 52,228 41,333 41,471 41,549 55,616 82,672 116,743 169,778 240,778 293,778 328,747 346,684 L 369,508 C 377,444 397,411 428,410 L 1163,1116 C 1174,1127 1196,1133 1229,1133 1271,1133 1292,1118 1292,1087 L 1292,965 C 1292,929 1282,901 1262,881 L 442,47 C 390,-6 338,-33 285,-33 Z"/>
  </g>
  <g id="bullet-char-template(9679)" transform="scale(0.00048828125,-0.00048828125)">
   <path d="M 813,0 C 632,0 489,54 383,161 276,268 223,411 223,592 223,773 276,916 383,1023 489,1130 632,1184 813,1184 992,1184 1136,1130 1245,1023 1353,916 1407,772 1407,592 1407,412 1353,268 1245,161 1136,54 992,0 813,0 Z"/>
  </g>
  <g id="bullet-char-template(8226)" transform="scale(0.00048828125,-0.00048828125)">
   <path d="M 346,457 C 273,457 209,483 155,535 101,586 74,649 74,723 74,796 101,859 155,911 209,963 273,989 346,989 419,989 480,963 531,910 582,859 608,796 608,723 608,648 583,586 532,535 482,483 420,457 346,457 Z"/>
  </g>
  <g id="bullet-char-template(8211)" transform="scale(0.00048828125,-0.00048828125)">
   <path d="M -4,459 L 1135,459 1135,606 -4,606 -4,459 Z"/>
  </g>
  <g id="bullet-char-template(61548)" transform="scale(0.00048828125,-0.00048828125)">
   <path d="M 173,740 C 173,903 231,1043 346,1159 462,1274 601,1332 765,1332 928,1332 1067,1274 1183,1159 1299,1043 1357,903 1357,740 1357,577 1299,437 1183,322 1067,206 928,148 765,148 601,148 462,206 346,322 231,437 173,577 173,740 Z"/>
  </g>
 </defs>
 <defs class="TextEmbeddedBitmaps"/>
 <g>
  <g id="id2" class="Master_Slide">
   <g id="bg-id2" class="Background"/>
   <g id="bo-id2" class="BackgroundObjects"/>
  </g>
 </g>
 <g class="SlideGroup">
  <g>
   <g id="container-id1">
    <g id="id1" class="Slide" clip-path="url(#presentation_clip_path)">
     <g class="Page">
      <g class="com.sun.star.drawing.CustomShape">
       <g id="id3">
        <rect class="BoundingBox" stroke="none" fill="none" x="1368" y="15400" width="5842" height="2566"/>
        <defs>
         <mask id="mask1">
          <g>
           <defs>
            <linearGradient id="gradient1" x1="4388" y1="15601" x2="4388" y2="17965" gradientUnits="userSpaceOnUse">
             <stop offset="0.5" style="stop-color:rgb(20,20,20)"/>
             <stop offset="0.5" style="stop-color:rgb(20,20,20)"/>
             <stop offset="1" style="stop-color:rgb(20,20,20)"/>
             <stop offset="1" style="stop-color:rgb(20,20,20)"/>
            </linearGradient>
           </defs>
           <path style="fill:url(#gradient1)" d="M 1569,15601 L 7208,15601 7208,17965 1569,17965 1569,15601 Z"/>
          </g>
         </mask>
        </defs>
        <g style="mask:url(#mask1)">
         <path fill="none" stroke="rgb(128,128,128)" stroke-width="305" stroke-linejoin="round" d="M 7056,15753 C 7056,16782 6834,17812 6612,17812 L 2166,17812 C 1944,17812 1721,16782 1721,15753"/>
         <path fill="none" stroke="rgb(128,128,128)" stroke-width="305" stroke-linejoin="round" d="M 7056,15753 L 7056,15753 Z"/>
         <path fill="none" stroke="rgb(128,128,128)" stroke-width="305" stroke-linejoin="round" d="M 1721,17812 L 1721,17812 Z"/>
        </g>
        <path fill="none" stroke="rgb(0,127,255)" stroke-width="305" stroke-linejoin="round" d="M 6856,15553 C 6856,16582 6634,17612 6412,17612 L 1966,17612 C 1744,17612 1521,16582 1521,15553"/>
        <path fill="none" stroke="rgb(0,127,255)" stroke-width="305" stroke-linejoin="round" d="M 6856,15553 L 6856,15553 Z"/>
        <path fill="none" stroke="rgb(0,127,255)" stroke-width="305" stroke-linejoin="round" d="M 1521,17612 L 1521,17612 Z"/>
       </g>
      </g>
      <g class="com.sun.star.drawing.EllipseShape">
       <g id="id4">
        <rect class="BoundingBox" stroke="none" fill="none" x="16057" y="12867" width="20" height="14"/>
        <path fill="none" stroke="rgb(52,101,164)" d="M 16075,12868 C 16069,12872 16064,12875 16058,12879"/>
       </g>
      </g>
      <g class="com.sun.star.drawing.CustomShape">
       <g id="id5">
        <rect class="BoundingBox" stroke="none" fill="none" x="1355" y="13139" width="5842" height="2566"/>
        <defs>
         <mask id="mask2">
          <g>
           <defs>
            <linearGradient id="gradient2" x1="4376" y1="13340" x2="4376" y2="15704" gradientUnits="userSpaceOnUse">
             <stop offset="0.5" style="stop-color:rgb(20,20,20)"/>
             <stop offset="0.5" style="stop-color:rgb(20,20,20)"/>
             <stop offset="1" style="stop-color:rgb(20,20,20)"/>
             <stop offset="1" style="stop-color:rgb(20,20,20)"/>
            </linearGradient>
           </defs>
           <path style="fill:url(#gradient2)" d="M 1556,13340 L 7196,13340 7196,15704 1556,15704 1556,13340 Z"/>
          </g>
         </mask>
        </defs>
        <g style="mask:url(#mask2)">
         <path fill="none" stroke="rgb(128,128,128)" stroke-width="305" stroke-linejoin="round" d="M 1708,15551 C 1708,14522 1930,13492 2152,13492 L 6598,13492 C 6820,13492 7043,14522 7043,15551"/>
         <path fill="none" stroke="rgb(128,128,128)" stroke-width="305" stroke-linejoin="round" d="M 1708,15551 L 1708,15551 Z"/>
         <path fill="none" stroke="rgb(128,128,128)" stroke-width="305" stroke-linejoin="round" d="M 7043,13492 L 7043,13492 Z"/>
        </g>
        <path fill="none" stroke="rgb(255,0,0)" stroke-width="305" stroke-linejoin="round" d="M 1508,15351 C 1508,14322 1730,13292 1952,13292 L 6398,13292 C 6620,13292 6843,14322 6843,15351"/>
        <path fill="none" stroke="rgb(255,0,0)" stroke-width="305" stroke-linejoin="round" d="M 1508,15351 L 1508,15351 Z"/>
        <path fill="none" stroke="rgb(255,0,0)" stroke-width="305" stroke-linejoin="round" d="M 6843,13292 L 6843,13292 Z"/>
       </g>
      </g>
      <g class="com.sun.star.drawing.CustomShape">
       <g id="id6">
        <rect class="BoundingBox" stroke="none" fill="none" x="5926" y="15386" width="5842" height="2566"/>
        <defs>
         <mask id="mask3">
          <g>
           <defs>
            <linearGradient id="gradient3" x1="8947" y1="15587" x2="8947" y2="17951" gradientUnits="userSpaceOnUse">
             <stop offset="0.5" style="stop-color:rgb(20,20,20)"/>
             <stop offset="0.5" style="stop-color:rgb(20,20,20)"/>
             <stop offset="1" style="stop-color:rgb(20,20,20)"/>
             <stop offset="1" style="stop-color:rgb(20,20,20)"/>
            </linearGradient>
           </defs>
           <path style="fill:url(#gradient3)" d="M 6127,15587 L 11767,15587 11767,17951 6127,17951 6127,15587 Z"/>
          </g>
         </mask>
        </defs>
        <g style="mask:url(#mask3)">
         <path fill="none" stroke="rgb(128,128,128)" stroke-width="305" stroke-linejoin="round" d="M 11614,15739 C 11614,16768 11392,17798 11170,17798 L 6724,17798 C 6502,17798 6279,16768 6279,15739"/>
         <path fill="none" stroke="rgb(128,128,128)" stroke-width="305" stroke-linejoin="round" d="M 11614,15739 L 11614,15739 Z"/>
         <path fill="none" stroke="rgb(128,128,128)" stroke-width="305" stroke-linejoin="round" d="M 6279,17798 L 6279,17798 Z"/>
        </g>
        <path fill="none" stroke="rgb(255,127,0)" stroke-width="305" stroke-linejoin="round" d="M 11414,15539 C 11414,16568 11192,17598 10970,17598 L 6524,17598 C 6302,17598 6079,16568 6079,15539"/>
        <path fill="none" stroke="rgb(255,127,0)" stroke-width="305" stroke-linejoin="round" d="M 11414,15539 L 11414,15539 Z"/>
        <path fill="none" stroke="rgb(255,127,0)" stroke-width="305" stroke-linejoin="round" d="M 6079,17598 L 6079,17598 Z"/>
       </g>
      </g>
      <g class="com.sun.star.drawing.CustomShape">
       <g id="id7">
        <rect class="BoundingBox" stroke="none" fill="none" x="5927" y="13139" width="5842" height="2566"/>
        <defs>
         <mask id="mask4">
          <g>
           <defs>
            <linearGradient id="gradient4" x1="8948" y1="13340" x2="8948" y2="15704" gradientUnits="userSpaceOnUse">
             <stop offset="0.5" style="stop-color:rgb(20,20,20)"/>
             <stop offset="0.5" style="stop-color:rgb(20,20,20)"/>
             <stop offset="1" style="stop-color:rgb(20,20,20)"/>
             <stop offset="1" style="stop-color:rgb(20,20,20)"/>
            </linearGradient>
           </defs>
           <path style="fill:url(#gradient4)" d="M 6128,13340 L 11768,13340 11768,15704 6128,15704 6128,13340 Z"/>
          </g>
         </mask>
        </defs>
        <g style="mask:url(#mask4)">
         <path fill="none" stroke="rgb(128,128,128)" stroke-width="305" stroke-linejoin="round" d="M 6280,15551 C 6280,14522 6502,13492 6724,13492 L 11170,13492 C 11392,13492 11615,14522 11615,15551"/>
         <path fill="none" stroke="rgb(128,128,128)" stroke-width="305" stroke-linejoin="round" d="M 6280,15551 L 6280,15551 Z"/>
         <path fill="none" stroke="rgb(128,128,128)" stroke-width="305" stroke-linejoin="round" d="M 11615,13492 L 11615,13492 Z"/>
        </g>
        <path fill="none" stroke="rgb(0,168,0)" stroke-width="305" stroke-linejoin="round" d="M 6080,15351 C 6080,14322 6302,13292 6524,13292 L 10970,13292 C 11192,13292 11415,14322 11415,15351"/>
        <path fill="none" stroke="rgb(0,168,0)" stroke-width="305" stroke-linejoin="round" d="M 6080,15351 L 6080,15351 Z"/>
        <path fill="none" stroke="rgb(0,168,0)" stroke-width="305" stroke-linejoin="round" d="M 11415,13292 L 11415,13292 Z"/>
       </g>
      </g>
      <g class="com.sun.star.drawing.CustomShape">
       <g id="id8">
        <rect class="BoundingBox" stroke="none" fill="none" x="10371" y="15325" width="5842" height="2566"/>
        <defs>
         <mask id="mask5">
          <g>
           <defs>
            <linearGradient id="gradient5" x1="13391" y1="15526" x2="13391" y2="17890" gradientUnits="userSpaceOnUse">
             <stop offset="0.5" style="stop-color:rgb(20,20,20)"/>
             <stop offset="0.5" style="stop-color:rgb(20,20,20)"/>
             <stop offset="1" style="stop-color:rgb(20,20,20)"/>
             <stop offset="1" style="stop-color:rgb(20,20,20)"/>
            </linearGradient>
           </defs>
           <path style="fill:url(#gradient5)" d="M 10571,15526 L 16211,15526 16211,17890 10571,17890 10571,15526 Z"/>
          </g>
         </mask>
        </defs>
        <g style="mask:url(#mask5)">
         <path fill="none" stroke="rgb(128,128,128)" stroke-width="305" stroke-linejoin="round" d="M 16059,15678 C 16059,16707 15837,17737 15615,17737 L 11169,17737 C 10947,17737 10724,16707 10724,15678"/>
         <path fill="none" stroke="rgb(128,128,128)" stroke-width="305" stroke-linejoin="round" d="M 16059,15678 L 16059,15678 Z"/>
         <path fill="none" stroke="rgb(128,128,128)" stroke-width="305" stroke-linejoin="round" d="M 10724,17737 L 10724,17737 Z"/>
        </g>
        <path fill="none" stroke="rgb(255,0,0)" stroke-width="305" stroke-linejoin="round" d="M 15859,15478 C 15859,16507 15637,17537 15415,17537 L 10969,17537 C 10747,17537 10524,16507 10524,15478"/>
        <path fill="none" stroke="rgb(255,0,0)" stroke-width="305" stroke-linejoin="round" d="M 15859,15478 L 15859,15478 Z"/>
        <path fill="none" stroke="rgb(255,0,0)" stroke-width="305" stroke-linejoin="round" d="M 10524,17537 L 10524,17537 Z"/>
       </g>
      </g>
      <g class="com.sun.star.drawing.CustomShape">
       <g id="id9">
        <rect class="BoundingBox" stroke="none" fill="none" x="10372" y="13139" width="5842" height="2566"/>
        <defs>
         <mask id="mask6">
          <g>
           <defs>
            <linearGradient id="gradient6" x1="13392" y1="13340" x2="13392" y2="15704" gradientUnits="userSpaceOnUse">
             <stop offset="0.5" style="stop-color:rgb(20,20,20)"/>
             <stop offset="0.5" style="stop-color:rgb(20,20,20)"/>
             <stop offset="1" style="stop-color:rgb(20,20,20)"/>
             <stop offset="1" style="stop-color:rgb(20,20,20)"/>
            </linearGradient>
           </defs>
           <path style="fill:url(#gradient6)" d="M 10573,13340 L 16212,13340 16212,15704 10573,15704 10573,13340 Z"/>
          </g>
         </mask>
        </defs>
        <g style="mask:url(#mask6)">
         <path fill="none" stroke="rgb(128,128,128)" stroke-width="305" stroke-linejoin="round" d="M 10725,15551 C 10725,14522 10947,13492 11169,13492 L 15615,13492 C 15837,13492 16060,14522 16060,15551"/>
         <path fill="none" stroke="rgb(128,128,128)" stroke-width="305" stroke-linejoin="round" d="M 10725,15551 L 10725,15551 Z"/>
         <path fill="none" stroke="rgb(128,128,128)" stroke-width="305" stroke-linejoin="round" d="M 16060,13492 L 16060,13492 Z"/>
        </g>
        <path fill="none" stroke="rgb(0,127,255)" stroke-width="305" stroke-linejoin="round" d="M 10525,15351 C 10525,14322 10747,13292 10969,13292 L 15415,13292 C 15637,13292 15860,14322 15860,15351"/>
        <path fill="none" stroke="rgb(0,127,255)" stroke-width="305" stroke-linejoin="round" d="M 10525,15351 L 10525,15351 Z"/>
        <path fill="none" stroke="rgb(0,127,255)" stroke-width="305" stroke-linejoin="round" d="M 15860,13292 L 15860,13292 Z"/>
       </g>
      </g>
      <g class="com.sun.star.drawing.EllipseShape">
       <g id="id10">
        <rect class="BoundingBox" stroke="none" fill="none" x="20159" y="12810" width="20" height="14"/>
        <path fill="none" stroke="rgb(52,101,164)" d="M 20177,12811 C 20171,12815 20166,12818 20160,12822"/>
       </g>
      </g>
      <g class="com.sun.star.drawing.CustomShape">
       <g id="id11">
        <rect class="BoundingBox" stroke="none" fill="none" x="14473" y="15266" width="5842" height="2566"/>
        <defs>
         <mask id="mask7">
          <g>
           <defs>
            <linearGradient id="gradient7" x1="17493" y1="15467" x2="17493" y2="17831" gradientUnits="userSpaceOnUse">
             <stop offset="0.5" style="stop-color:rgb(20,20,20)"/>
             <stop offset="0.5" style="stop-color:rgb(20,20,20)"/>
             <stop offset="1" style="stop-color:rgb(20,20,20)"/>
             <stop offset="1" style="stop-color:rgb(20,20,20)"/>
            </linearGradient>
           </defs>
           <path style="fill:url(#gradient7)" d="M 14673,15467 L 20314,15467 20314,17831 14673,17831 14673,15467 Z"/>
          </g>
         </mask>
        </defs>
        <g style="mask:url(#mask7)">
         <path fill="none" stroke="rgb(128,128,128)" stroke-width="305" stroke-linejoin="round" d="M 20161,15619 C 20161,16648 19939,17678 19717,17678 L 15271,17678 C 15049,17678 14826,16648 14826,15619"/>
         <path fill="none" stroke="rgb(128,128,128)" stroke-width="305" stroke-linejoin="round" d="M 20161,15619 L 20161,15619 Z"/>
         <path fill="none" stroke="rgb(128,128,128)" stroke-width="305" stroke-linejoin="round" d="M 14826,17678 L 14826,17678 Z"/>
        </g>
        <path fill="none" stroke="rgb(0,168,0)" stroke-width="305" stroke-linejoin="round" d="M 19961,15419 C 19961,16448 19739,17478 19517,17478 L 15071,17478 C 14849,17478 14626,16448 14626,15419"/>
        <path fill="none" stroke="rgb(0,168,0)" stroke-width="305" stroke-linejoin="round" d="M 19961,15419 L 19961,15419 Z"/>
        <path fill="none" stroke="rgb(0,168,0)" stroke-width="305" stroke-linejoin="round" d="M 14626,17478 L 14626,17478 Z"/>
       </g>
      </g>
      <g class="com.sun.star.drawing.CustomShape">
       <g id="id12">
        <rect class="BoundingBox" stroke="none" fill="none" x="14436" y="13139" width="5842" height="2312"/>
        <defs>
         <mask id="mask8">
          <g>
           <defs>
            <linearGradient id="gradient8" x1="17457" y1="13340" x2="17457" y2="15450" gradientUnits="userSpaceOnUse">
             <stop offset="0.5" style="stop-color:rgb(20,20,20)"/>
             <stop offset="0.5" style="stop-color:rgb(20,20,20)"/>
             <stop offset="1" style="stop-color:rgb(20,20,20)"/>
             <stop offset="1" style="stop-color:rgb(20,20,20)"/>
            </linearGradient>
           </defs>
           <path style="fill:url(#gradient8)" d="M 14637,13340 L 20277,13340 20277,15450 14637,15450 14637,13340 Z"/>
          </g>
         </mask>
        </defs>
        <g style="mask:url(#mask8)">
         <path fill="none" stroke="rgb(128,128,128)" stroke-width="305" stroke-linejoin="round" d="M 14789,15297 C 14789,14395 15011,13492 15233,13492 L 19679,13492 C 19901,13492 20124,14395 20124,15297"/>
         <path fill="none" stroke="rgb(128,128,128)" stroke-width="305" stroke-linejoin="round" d="M 14789,15297 L 14789,15297 Z"/>
         <path fill="none" stroke="rgb(128,128,128)" stroke-width="305" stroke-linejoin="round" d="M 20124,13492 L 20124,13492 Z"/>
        </g>
        <path fill="none" stroke="rgb(255,127,0)" stroke-width="305" stroke-linejoin="round" d="M 14589,15097 C 14589,14195 14811,13292 15033,13292 L 19479,13292 C 19701,13292 19924,14195 19924,15097"/>
        <path fill="none" stroke="rgb(255,127,0)" stroke-width="305" stroke-linejoin="round" d="M 14589,15097 L 14589,15097 Z"/>
        <path fill="none" stroke="rgb(255,127,0)" stroke-width="305" stroke-linejoin="round" d="M 19924,13292 L 19924,13292 Z"/>
       </g>
      </g>
     </g>
    </g>
   </g>
  </g>
 </g>
</svg>